[h264 @ 0x5580437bed40] Reinit context to 640x352, pix_fmt: yuv420p
Input #0, mov,mp4,m4a,3gp,3g2,mj2, from '/var/www/html/project/media/video/original/WhatsApp_Video_2022-08-24_at_15.44.34.mp4':
  Metadata:
    major_brand     : mp42
    minor_version   : 0
    compatible_brands: mp42isom
  Duration: 00:01:27.13, start: 0.000000, bitrate: 1877 kb/s
    Stream #0:0(und): Video: h264 (Baseline), 1 reference frame (avc1 / 0x31637661), yuv420p(left), 640x352, 1743 kb/s, 30.01 fps, 30 tbr, 90k tbn, 180k tbc (default)
    Stream #0:1(und): Audio: aac (LC) (mp4a / 0x6134706D), 48000 Hz, stereo, fltp, 131 kb/s (default)
[h264 @ 0x55804384a580] Reinit context to 1280x720, pix_fmt: yuv420p
Input #1, mov,mp4,m4a,3gp,3g2,mj2, from '/var/www/html/project/static/images/templates/Codino.mp4':
  Metadata:
    major_brand     : mp42
    minor_version   : 1
    compatible_brands: isommp41mp42
    creation_time   : 2021-07-11T07:02:58.000000Z
  Duration: 00:00:02.00, start: 0.000000, bitrate: 1007 kb/s
    Stream #1:0(ita): Audio: aac (LC) (mp4a / 0x6134706D), 44100 Hz, stereo, fltp, 102 kb/s (default)
    Metadata:
      creation_time   : 2021-07-11T07:02:58.000000Z
      handler_name    : Core Media Audio
    Stream #1:1(und): Video: h264 (High), 1 reference frame (avc1 / 0x31637661), yuv420p(tv, bt709, progressive, left), 1280x720 [SAR 1:1 DAR 16:9], 813 kb/s, 25 fps, 25 tbr, 25k tbn, 50k tbc (default)
    Metadata:
      creation_time   : 2021-07-11T07:02:58.000000Z
      handler_name    : Core Media Video
[Parsed_scale_0 @ 0x55804381a800] w:1280 h:720 flags:'bilinear' interl:0
[Parsed_scale_2 @ 0x558043885500] w:1280 h:720 flags:'bilinear' interl:0
Stream mapping:
  Stream #0:0 (h264) -> scale
  Stream #0:1 (aac) -> concat:in0:a0
  Stream #1:0 (aac) -> concat:in1:a0
  Stream #1:1 (h264) -> scale
  concat:out:v0 -> Stream #0:0 (libx264)
  concat:out:a0 -> Stream #0:1 (aac)
Press [q] to stop, [?] for help
[h264 @ 0x558043819ec0] Reinit context to 640x352, pix_fmt: yuv420p
[h264 @ 0x558043c49400] Reinit context to 1280x720, pix_fmt: yuv420p
[Parsed_scale_0 @ 0x55804465d300] w:1280 h:720 flags:'bilinear' interl:0
[Parsed_scale_2 @ 0x558044665840] w:1280 h:720 flags:'bilinear' interl:0
[graph 0 input from stream 0:0 @ 0x558044668980] w:640 h:352 pixfmt:yuv420p tb:1/90000 fr:30/1 sar:0/1 sws_param:flags=2
[graph 0 input from stream 1:1 @ 0x5580446699c0] w:1280 h:720 pixfmt:yuv420p tb:1/25000 fr:25/1 sar:1/1 sws_param:flags=2
[graph_0_in_0_1 @ 0x55804466a980] tb:1/48000 samplefmt:fltp samplerate:48000 chlayout:0x3
[graph_0_in_1_0 @ 0x55804466bac0] tb:1/44100 samplefmt:fltp samplerate:44100 chlayout:0x3
[Parsed_concat_4 @ 0x5580446669c0] auto-inserting filter 'auto_resampler_0' between the filter 'graph_0_in_1_0' and the filter 'Parsed_concat_4'
[Parsed_scale_0 @ 0x55804465d300] w:640 h:352 fmt:yuv420p sar:0/1 -> w:1280 h:720 fmt:yuv420p sar:0/1 flags:0x2
[Parsed_setsar_1 @ 0x558044665380] w:1280 h:720 sar:0/1 dar:16/9 -> sar:1/1 dar:16/9
[Parsed_scale_2 @ 0x558044665840] w:1280 h:720 fmt:yuv420p sar:1/1 -> w:1280 h:720 fmt:yuv420p sar:1/1 flags:0x2
[Parsed_setsar_3 @ 0x558044665b80] w:1280 h:720 sar:1/1 dar:16/9 -> sar:1/1 dar:16/9
[auto_resampler_0 @ 0x558044666dc0] ch:2 chl:stereo fmt:fltp r:44100Hz -> ch:2 chl:stereo fmt:fltp r:48000Hz
[libx264 @ 0x5580438c7700] using SAR=1/1
[libx264 @ 0x5580438c7700] using cpu capabilities: MMX2 SSE2Fast SSSE3 SSE4.2 AVX FMA3 BMI2 AVX2
[libx264 @ 0x5580438c7700] profile High, level 3.1
[libx264 @ 0x5580438c7700] 264 - core 155 r2917 0a84d98 - H.264/MPEG-4 AVC codec - Copyleft 2003-2018 - http://www.videolan.org/x264.html - options: cabac=1 ref=1 deblock=1:0:0 analyse=0x3:0x113 me=hex subme=2 psy=1 psy_rd=1.00:0.00 mixed_ref=0 me_range=16 chroma_me=1 trellis=0 8x8dct=1 cqm=0 deadzone=21,11 fast_pskip=1 chroma_qp_offset=0 threads=22 lookahead_threads=5 sliced_threads=0 nr=0 decimate=1 interlaced=0 bluray_compat=0 constrained_intra=0 bframes=3 b_pyramid=2 b_adapt=1 b_bias=0 direct=1 weightb=1 open_gop=0 weightp=1 keyint=250 keyint_min=25 scenecut=40 intra_refresh=0 rc_lookahead=10 rc=crf mbtree=1 crf=18.0 qcomp=0.60 qpmin=0 qpmax=69 qpstep=4 ip_ratio=1.40 aq=1:1.00
Output #0, mp4, to '/var/www/html/project/media/video/watermarks/WhatsApp_Video_2022-08-24_at_15.44.34.mp4':
  Metadata:
    major_brand     : mp42
    minor_version   : 0
    compatible_brands: mp42isom
    encoder         : Lavf58.29.100
    Stream #0:0: Video: h264 (libx264), 1 reference frame (avc1 / 0x31637661), yuv420p(progressive), 1280x720 [SAR 1:1 DAR 16:9], q=-1--1, 30 fps, 15360 tbn, 30 tbc (default)
    Metadata:
      encoder         : Lavc58.54.100 libx264
    Side data:
      cpb: bitrate max/min/avg: 0/0/0 buffer size: 0 vbv_delay: -1
    Stream #0:1: Audio: aac (LC) (mp4a / 0x6134706D), 48000 Hz, stereo, fltp, delay 1024, 128 kb/s (default)
    Metadata:
      encoder         : Lavc58.54.100 aac
[Parsed_concat_4 @ 0x5580446669c0] EOF on in0:v0, 1 streams left in segment.
[Parsed_concat_4 @ 0x5580446669c0] EOF on in0:a0, 0 streams left in segment.
[Parsed_concat_4 @ 0x5580446669c0] Segment finished at pts=87132466
[Parsed_concat_4 @ 0x5580446669c0] EOF on in1:v0, 1 streams left in segment.
[Parsed_concat_4 @ 0x5580446669c0] EOF on in1:a0, 0 streams left in segment.
[Parsed_concat_4 @ 0x5580446669c0] Segment finished at pts=89151153
No more output streams to write to, finishing.
frame= 2664 fps=232 q=-1.0 Lsize=   62691kB time=00:01:29.15 bitrate=5760.6kbits/s speed=7.78x    
[AVIOContext @ 0x5580437bd180] Statistics: 0 seeks, 23 writeouts
video:61191kB audio:1414kB subtitle:0kB other streams:0kB global headers:0kB muxing overhead: 0.137102%
Input file #0 (/var/www/html/project/media/video/original/WhatsApp_Video_2022-08-24_at_15.44.34.mp4):
  Input stream #0:0 (video): 2614 packets read (18981721 bytes); 2614 frames decoded; 
  Input stream #0:1 (audio): 4084 packets read (1427784 bytes); 4084 frames decoded (4182016 samples); 
  Total: 6698 packets (20409505 bytes) demuxed
Input file #1 (/var/www/html/project/static/images/templates/Codino.mp4):
  Input stream #1:0 (audio): 89 packets read (26579 bytes); 87 frames decoded (89024 samples); 
  Input stream #1:1 (video): 50 packets read (203365 bytes); 50 frames decoded; 
  Total: 139 packets (229944 bytes) demuxed
Output file #0 (/var/www/html/project/media/video/watermarks/WhatsApp_Video_2022-08-24_at_15.44.34.mp4):
  Output stream #0:0 (video): 2664 frames encoded; 2664 packets muxed (62659577 bytes); 
  Output stream #0:1 (audio): 4179 frames encoded (4279255 samples); 4180 packets muxed (1448214 bytes); 
  Total: 6844 packets (64107791 bytes) muxed
[AVIOContext @ 0x5580438c7f40] Statistics: 2 seeks, 248 writeouts
[libx264 @ 0x5580438c7700] frame I:17    Avg QP:14.54  size: 78178
[libx264 @ 0x5580438c7700] frame P:1875  Avg QP:18.75  size: 28780
[libx264 @ 0x5580438c7700] frame B:772   Avg QP:20.66  size:  9543
[libx264 @ 0x5580438c7700] consecutive B-frames: 58.7%  6.0%  5.5% 29.7%
[libx264 @ 0x5580438c7700] mb I  I16..4: 24.7% 24.2% 51.1%
[libx264 @ 0x5580438c7700] mb P  I16..4:  8.2%  8.8%  1.3%  P16..4: 35.1% 15.9% 10.9%  0.0%  0.0%    skip:19.8%
[libx264 @ 0x5580438c7700] mb B  I16..4:  2.5%  1.7%  0.1%  B16..8: 25.4%  9.3%  1.1%  direct:16.4%  skip:43.5%  L0:40.9% L1:40.0% BI:19.1%
[libx264 @ 0x5580438c7700] 8x8 transform intra:46.4% inter:47.9%
[libx264 @ 0x5580438c7700] coded y,uvDC,uvAC intra: 40.3% 48.3% 13.6% inter: 31.8% 13.1% 0.6%
[libx264 @ 0x5580438c7700] i16 v,h,dc,p: 44% 39% 11%  5%
[libx264 @ 0x5580438c7700] i8 v,h,dc,ddl,ddr,vr,hd,vl,hu: 26% 36% 21%  3%  3%  2%  4%  2%  4%
[libx264 @ 0x5580438c7700] i4 v,h,dc,ddl,ddr,vr,hd,vl,hu: 26% 28% 15%  4%  6%  5%  6%  4%  5%
[libx264 @ 0x5580438c7700] i8c dc,h,v,p: 47% 29% 19%  5%
[libx264 @ 0x5580438c7700] Weighted P-Frames: Y:2.7% UV:0.2%
[libx264 @ 0x5580438c7700] kb/s:5623.83
[aac @ 0x5580438c8b40] Qavg: 909.433
[AVIOContext @ 0x5580437c6080] Statistics: 134379645 bytes read, 3941 seeks
[AVIOContext @ 0x5580438e8bc0] Statistics: 1530915 bytes read, 42 seeks
